<svg xmlns="http://www.w3.org/2000/svg" version="1.1" xmlns:xlink="http://www.w3.org/1999/xlink" xmlns:svgjs="http://svgjs.dev/svgjs" width="2000" height="843" viewBox="0 0 2000 843"><g transform="matrix(1,0,0,1,-1.2121212121212466,1.0820476837735669)"><svg viewBox="0 0 396 167" data-background-color="#2e2e2e" preserveAspectRatio="xMidYMid meet" height="843" width="2000" xmlns="http://www.w3.org/2000/svg" xmlns:xlink="http://www.w3.org/1999/xlink"><defs></defs><g id="tight-bounds" transform="matrix(1,0,0,1,0.2400000000000091,-0.2143558282208602)"><svg viewBox="0 0 395.52 167.42871165644172" height="167.42871165644172" width="395.52"><g><svg viewBox="0 0 395.52 167.42871165644172" height="167.42871165644172" width="395.52"><g><svg viewBox="0 0 395.52 167.42871165644172" height="167.42871165644172" width="395.52"><g><svg viewBox="0 0 395.52 167.42871165644172" height="167.42871165644172" width="395.52"><g><svg viewBox="0 0 395.52 167.42871165644172" height="167.42871165644172" width="395.52"><g transform="matrix(1,0,0,1,0,0)"><svg width="395.52" viewBox="-0.5500000000000007 -34.949999999999996 89.64999999999998 34.949999999999996" height="167.42871165644172" data-palette-color="#ffffff"><svg></svg><g class="undefined-text-0" data-fill-palette-color="primary" id="text-0"><path d="M35.6 0v-22l-9.45 19.1h-4.65l-9.4-19.1v22h-12.65v-2.15h4.85v-32.8h10.55l9 19.2 9.05-19.2h10.5v32.8h4.85v2.15zM47.15-2.15h4.85v-32.8h7.3l17.15 22.5v-22.5h7.8v32.8h4.85v2.15h-12.65l-16.65-21.9v21.9h-12.65z" data-fill-palette-color="primary" fill="#ffffff" opacity="1"></path></g></svg></g></svg></g></svg></g></svg></g></svg></g></svg><rect width="395.52" height="167.42871165644172" fill="none" stroke="none" visibility="hidden"></rect></g></svg></g></svg>